<svg width="56" height="55" viewBox="0 0 56 55" fill="none" xmlns="http://www.w3.org/2000/svg">
  <path
    d="M44.2977 38.5629C43.1328 39.7278 41.2466 39.7354 40.0723 38.5801L30.7709 29.4287C29.5755 28.2526 29.5764 26.3249 30.7728 25.1498L34.7365 21.2569L47.3481 8.7394C48.5059 7.59028 50.3697 7.57683 51.5439 8.70912L53.3566 10.4571C54.571 11.6281 54.5814 13.5698 53.3797 14.7537L42.921 25.0574C41.7345 26.2264 41.7274 28.1381 42.9051 29.3159L46.1036 32.5143C47.2752 33.6859 47.2752 35.5854 46.1036 36.757L44.2977 38.5629Z"
    fill="url(#paint0_linear_86_11380)" />
  <path
    d="M9.09349 45.8334C7.92694 46.9828 6.05419 46.9843 4.88581 45.8368L3.03417 44.0182C1.83521 42.8406 1.83728 40.908 3.03876 39.733L13.5954 29.4093C14.7893 28.2417 14.8 26.3239 13.6191 25.1431L10.4478 21.9717C9.26872 20.7927 9.27735 18.8784 10.467 17.7101L12.3443 15.8662C13.5121 14.7193 15.3837 14.7201 16.5505 15.8681L25.8709 25.0382C27.0663 26.2143 27.0655 28.142 25.869 29.317L21.9053 33.21L9.09349 45.8334Z"
    fill="url(#paint1_linear_86_11380)" />
  <path
    d="M45.1836 52.2991C44.0122 53.4497 42.1334 53.4447 40.9681 52.288L30.3873 41.7856C29.2145 40.6214 27.3211 40.6249 26.1526 41.7934L22.9113 45.0347C21.7472 46.1988 19.8624 46.2073 18.6878 45.0537L16.8364 43.2354C15.6434 42.0636 15.6386 40.1427 16.8258 38.9651L26.1637 29.7025C27.3292 28.5464 29.2074 28.5418 30.3786 29.692L34.4071 33.6486L47.055 46.2028C48.2415 47.3805 48.2364 49.3009 47.0437 50.4723L45.1836 52.2991Z"
    fill="url(#paint2_linear_86_11380)" />
  <path
    d="M22.1254 20.8181L9.47416 8.35427C8.28764 7.18533 8.2805 5.27361 9.45826 4.09585L11.2469 2.30721C12.4123 1.14181 14.2996 1.13477 15.4737 2.29144L26.0356 12.6969C27.2097 13.8536 29.097 13.8465 30.2624 12.6811L33.5115 9.43198C34.6756 8.26786 36.5604 8.25937 37.735 9.41296L39.5775 11.2226C40.774 12.3977 40.7748 14.3253 39.5794 15.5015L30.2586 24.6719C29.092 25.8197 27.2207 25.8207 26.0528 24.6741L22.1254 20.8181Z"
    fill="url(#paint3_linear_86_11380)" />
  <defs>
    <linearGradient id="paint0_linear_86_11380" x1="55.5727" y1="23.6649" x2="55.5727" y2="-10.4059"
      gradientUnits="userSpaceOnUse">
      <stop stop-color="#40AB3D" />
      <stop offset="0.52" stop-color="#3FA93D" />
      <stop offset="0.72" stop-color="#3BA23B" />
      <stop offset="0.86" stop-color="#359639" />
      <stop offset="0.97" stop-color="#2D8535" />
      <stop offset="1" stop-color="#2A8034" />
    </linearGradient>
    <linearGradient id="paint1_linear_86_11380" x1="0.894638" y1="30.8864" x2="0.894638" y2="64.954"
      gradientUnits="userSpaceOnUse">
      <stop stop-color="#40AB3D" />
      <stop offset="0.52" stop-color="#3FA93D" />
      <stop offset="0.72" stop-color="#3BA23B" />
      <stop offset="0.86" stop-color="#359639" />
      <stop offset="0.97" stop-color="#2D8535" />
      <stop offset="1" stop-color="#2A8034" />
    </linearGradient>
    <linearGradient id="paint2_linear_86_11380" x1="14.635" y1="40.9964" x2="14.635" y2="67.6542"
      gradientUnits="userSpaceOnUse">
      <stop stop-color="#FFFFFF" />
      <stop offset="1" stop-color="#161616" />
    </linearGradient>
    <linearGradient id="paint3_linear_86_11380" x1="24.5704" y1="0.200439" x2="59.104" y2="0.200439"
      gradientUnits="userSpaceOnUse">
      <stop stop-color="#FFFFFF" />
      <stop offset="1" stop-color="#161616" />
    </linearGradient>
  </defs>
</svg>