<svg width="103" height="26" viewBox="0 0 103 26" fill="none" xmlns="http://www.w3.org/2000/svg">
<path d="M0.535645 0.630859H4.15449V16.0932H9.41826V19.4927H0.535645V0.630859Z" fill="#130F40"/>
<path d="M25.6478 13.5708H14.3526C14.4623 14.5578 14.9009 15.3254 15.6685 15.9834C16.4362 16.6414 17.3135 16.8607 18.4101 16.8607C19.726 16.8607 20.8227 16.422 21.8096 15.4351L24.7705 16.8607C24.0028 17.9573 23.1255 18.7249 22.1386 19.1636C21.1516 19.6022 19.8357 19.9312 18.5198 19.9312C16.3265 19.9312 14.5719 19.2733 13.1463 17.8476C11.7207 16.422 11.0627 14.7771 11.0627 12.6935C11.0627 10.61 11.7207 8.74571 13.1463 7.42976C14.5719 6.11382 16.2168 5.34619 18.3004 5.34619C20.4937 5.34619 22.2483 6.00416 23.6739 7.42976C25.0995 8.85537 25.7574 10.7196 25.7574 13.0225L25.6478 13.5708ZM22.1386 10.8293C21.9193 10.0617 21.4806 9.40368 20.8226 8.96503C20.1647 8.52639 19.397 8.1974 18.4101 8.1974C17.4231 8.1974 16.5458 8.41672 15.8879 9.07469C15.4492 9.40368 15.0106 10.0617 14.5719 10.9389H22.1386V10.8293Z" fill="#130F40"/>
<path d="M27.2939 5.56543H31.3514L34.0929 9.4036L36.8345 5.56543H40.892L36.1765 12.1451L41.5499 19.6022H37.4924L34.2026 14.9964L30.9127 19.6022H26.8552L32.119 12.2548L27.2939 5.56543Z" fill="#130F40"/>
<path d="M42.8403 0.630859H53.2582V4.14004H49.8587V19.4927H46.1302V4.14004H42.8403V0.630859Z" fill="#130F40"/>
<path d="M67.9793 13.5708H56.6841C56.7938 14.5578 57.2325 15.3254 58.0001 15.9834C58.7677 16.6414 59.645 16.8607 60.7416 16.8607C62.0576 16.8607 63.1542 16.422 64.1412 15.4351L67.102 16.8607C66.3344 17.9573 65.4571 18.7249 64.4701 19.1636C63.4832 19.6022 62.1672 19.9312 60.8513 19.9312C58.6581 19.9312 56.9035 19.2733 55.4779 17.8476C54.0523 16.422 53.3943 14.7771 53.3943 12.6935C53.3943 10.61 54.0523 8.74571 55.4779 7.42976C56.9035 6.11382 58.5484 5.34619 60.632 5.34619C62.8252 5.34619 64.5798 6.00416 66.0054 7.42976C67.431 8.85537 68.089 10.7196 68.089 13.0225L67.9793 13.5708ZM64.4701 10.8293C64.2508 10.0617 63.8122 9.40368 63.1542 8.96503C62.4962 8.52639 61.7286 8.1974 60.7416 8.1974C59.7547 8.1974 58.8774 8.41672 58.2194 9.07469C57.7808 9.40368 57.3421 10.0617 56.9035 10.9389H64.4701V10.8293Z" fill="#130F40"/>
<path d="M81.1381 5.5656H84.6473V17.5187C84.6473 19.9313 84.2087 21.5762 83.2217 22.7825C81.9058 24.3178 80.0415 25.0854 77.4096 25.0854C76.0937 25.0854 74.8874 24.8661 73.9005 24.5371C72.9135 24.2081 72.1459 23.6598 71.4879 23.0018C70.8299 22.3439 70.3913 21.5762 70.0623 20.5893H73.9005C74.2295 21.0279 74.6681 21.2472 75.2164 21.4666C75.7647 21.6859 76.4227 21.7956 77.0807 21.7956C78.0676 21.7956 78.8353 21.6859 79.3836 21.3569C79.9319 21.0279 80.3705 20.6989 80.5898 20.2603C80.8092 19.8216 80.9188 19.054 80.9188 17.8477C80.2609 18.5057 79.6029 18.9444 78.9449 19.1637C78.2869 19.383 77.5193 19.6023 76.642 19.6023C74.7778 19.6023 73.1328 18.9444 71.9266 17.5187C70.7203 16.0931 69.9526 14.4482 69.9526 12.3646C69.9526 10.1714 70.6106 8.41681 72.0362 6.99121C73.2425 5.78493 74.7778 5.12695 76.5324 5.12695C77.3 5.12695 78.0676 5.23661 78.8353 5.5656C79.6029 5.89458 80.2609 6.33323 81.0285 6.99121V5.5656H81.1381ZM77.5193 8.52647C76.4227 8.52647 75.5454 8.85546 74.7778 9.62309C74.0101 10.3907 73.6811 11.268 73.6811 12.3646C73.6811 13.5709 74.0101 14.4482 74.7778 15.2158C75.5454 15.9835 76.4227 16.3125 77.5193 16.3125C78.6159 16.3125 79.4932 15.9835 80.2608 15.2158C81.0285 14.4482 81.3575 13.5709 81.3575 12.3646C81.3575 11.1584 81.0285 10.2811 80.2608 9.51343C79.4932 8.7458 78.6159 8.52647 77.5193 8.52647Z" fill="#130F40"/>
<path d="M94.7367 5.23682C96.0527 5.23682 97.2589 5.5658 98.4652 6.22378C99.6715 6.88175 100.549 7.75904 101.207 8.85566C101.865 9.95228 102.194 11.1586 102.194 12.4745C102.194 13.7904 101.865 14.9967 101.207 16.203C100.549 17.4093 99.6715 18.2866 98.5749 18.9446C97.4783 19.6025 96.1623 19.9315 94.8464 19.9315C92.8725 19.9315 91.1179 19.1639 89.6923 17.7383C88.2667 16.3127 87.499 14.6677 87.499 12.5842C87.499 10.3909 88.2667 8.52667 89.9116 7.10107C91.2275 5.89479 92.8725 5.23682 94.7367 5.23682ZM94.7367 8.52667C93.6401 8.52667 92.7628 8.85566 91.9952 9.62329C91.2275 10.3909 90.8985 11.3779 90.8985 12.5842C90.8985 13.7904 91.2275 14.7774 91.9952 15.545C92.7628 16.3127 93.6401 16.6417 94.7367 16.6417C95.8333 16.6417 96.7106 16.3127 97.4783 15.545C98.2459 14.7774 98.5749 13.7904 98.5749 12.5842C98.5749 11.3779 98.2459 10.3909 97.4783 9.62329C96.8203 8.96532 95.943 8.52667 94.7367 8.52667Z" fill="#130F40"/>
</svg>
