<svg width="163" height="55" viewBox="0 0 163 55" fill="none" xmlns="http://www.w3.org/2000/svg">
<path d="M60.5356 18.6309H64.1545V34.0932H69.4183V37.4927H60.5356V18.6309Z" fill="#130F40"/>
<path d="M85.6478 31.5708H74.3526C74.4623 32.5578 74.9009 33.3254 75.6685 33.9834C76.4362 34.6414 77.3135 34.8607 78.4101 34.8607C79.726 34.8607 80.8227 34.422 81.8096 33.4351L84.7705 34.8607C84.0028 35.9573 83.1255 36.7249 82.1386 37.1636C81.1516 37.6022 79.8357 37.9312 78.5198 37.9312C76.3265 37.9312 74.5719 37.2733 73.1463 35.8476C71.7207 34.422 71.0627 32.7771 71.0627 30.6935C71.0627 28.61 71.7207 26.7457 73.1463 25.4298C74.5719 24.1138 76.2168 23.3462 78.3004 23.3462C80.4937 23.3462 82.2483 24.0042 83.6739 25.4298C85.0995 26.8554 85.7574 28.7196 85.7574 31.0225L85.6478 31.5708ZM82.1386 28.8293C81.9193 28.0617 81.4806 27.4037 80.8226 26.965C80.1647 26.5264 79.397 26.1974 78.4101 26.1974C77.4231 26.1974 76.5458 26.4167 75.8879 27.0747C75.4492 27.4037 75.0106 28.0617 74.5719 28.9389H82.1386V28.8293Z" fill="#130F40"/>
<path d="M87.2939 23.5654H91.3514L94.0929 27.4036L96.8345 23.5654H100.892L96.1765 30.1451L101.55 37.6022H97.4924L94.2026 32.9964L90.9127 37.6022H86.8552L92.119 30.2548L87.2939 23.5654Z" fill="#130F40"/>
<path d="M102.84 18.6309H113.258V22.14H109.859V37.4927H106.13V22.14H102.84V18.6309Z" fill="#130F40"/>
<path d="M127.979 31.5708H116.684C116.794 32.5578 117.232 33.3254 118 33.9834C118.768 34.6414 119.645 34.8607 120.742 34.8607C122.058 34.8607 123.154 34.422 124.141 33.4351L127.102 34.8607C126.334 35.9573 125.457 36.7249 124.47 37.1636C123.483 37.6022 122.167 37.9312 120.851 37.9312C118.658 37.9312 116.903 37.2733 115.478 35.8476C114.052 34.422 113.394 32.7771 113.394 30.6935C113.394 28.61 114.052 26.7457 115.478 25.4298C116.903 24.1138 118.548 23.3462 120.632 23.3462C122.825 23.3462 124.58 24.0042 126.005 25.4298C127.431 26.8554 128.089 28.7196 128.089 31.0225L127.979 31.5708ZM124.47 28.8293C124.251 28.0617 123.812 27.4037 123.154 26.965C122.496 26.5264 121.729 26.1974 120.742 26.1974C119.755 26.1974 118.877 26.4167 118.219 27.0747C117.781 27.4037 117.342 28.0617 116.903 28.9389H124.47V28.8293Z" fill="#130F40"/>
<path d="M141.138 23.5656H144.647V35.5187C144.647 37.9313 144.209 39.5762 143.222 40.7825C141.906 42.3178 140.042 43.0854 137.41 43.0854C136.094 43.0854 134.887 42.8661 133.9 42.5371C132.914 42.2081 132.146 41.6598 131.488 41.0018C130.83 40.3439 130.391 39.5762 130.062 38.5893H133.9C134.229 39.0279 134.668 39.2472 135.216 39.4666C135.765 39.6859 136.423 39.7956 137.081 39.7956C138.068 39.7956 138.835 39.6859 139.384 39.3569C139.932 39.0279 140.371 38.6989 140.59 38.2603C140.809 37.8216 140.919 37.054 140.919 35.8477C140.261 36.5057 139.603 36.9444 138.945 37.1637C138.287 37.383 137.519 37.6023 136.642 37.6023C134.778 37.6023 133.133 36.9444 131.927 35.5187C130.72 34.0931 129.953 32.4482 129.953 30.3646C129.953 28.1714 130.611 26.4168 132.036 24.9912C133.242 23.7849 134.778 23.127 136.532 23.127C137.3 23.127 138.068 23.2366 138.835 23.5656C139.603 23.8946 140.261 24.3332 141.028 24.9912V23.5656H141.138ZM137.519 26.5265C136.423 26.5265 135.545 26.8555 134.778 27.6231C134.01 28.3907 133.681 29.268 133.681 30.3646C133.681 31.5709 134.01 32.4482 134.778 33.2158C135.545 33.9835 136.423 34.3125 137.519 34.3125C138.616 34.3125 139.493 33.9835 140.261 33.2158C141.028 32.4482 141.357 31.5709 141.357 30.3646C141.357 29.1584 141.028 28.2811 140.261 27.5134C139.493 26.7458 138.616 26.5265 137.519 26.5265Z" fill="#130F40"/>
<path d="M154.737 23.2368C156.053 23.2368 157.259 23.5658 158.465 24.2238C159.671 24.8817 160.549 25.759 161.207 26.8557C161.865 27.9523 162.194 29.1586 162.194 30.4745C162.194 31.7904 161.865 32.9967 161.207 34.203C160.549 35.4093 159.672 36.2866 158.575 36.9446C157.478 37.6025 156.162 37.9315 154.846 37.9315C152.872 37.9315 151.118 37.1639 149.692 35.7383C148.267 34.3127 147.499 32.6677 147.499 30.5842C147.499 28.3909 148.267 26.5267 149.912 25.1011C151.228 23.8948 152.872 23.2368 154.737 23.2368ZM154.737 26.5267C153.64 26.5267 152.763 26.8557 151.995 27.6233C151.228 28.3909 150.899 29.3779 150.899 30.5842C150.899 31.7904 151.228 32.7774 151.995 33.545C152.763 34.3127 153.64 34.6417 154.737 34.6417C155.833 34.6417 156.711 34.3127 157.478 33.545C158.246 32.7774 158.575 31.7904 158.575 30.5842C158.575 29.3779 158.246 28.3909 157.478 27.6233C156.82 26.9653 155.943 26.5267 154.737 26.5267Z" fill="#130F40"/>
<path d="M44.2977 38.5629C43.1328 39.7278 41.2466 39.7354 40.0723 38.5801L30.7709 29.4287C29.5755 28.2526 29.5764 26.3249 30.7728 25.1498L34.7365 21.2569L47.3481 8.7394C48.5059 7.59028 50.3697 7.57683 51.5439 8.70912L53.3566 10.4571C54.571 11.6281 54.5814 13.5698 53.3797 14.7537L42.921 25.0574C41.7345 26.2264 41.7274 28.1381 42.9051 29.3159L46.1036 32.5143C47.2752 33.6859 47.2752 35.5854 46.1036 36.757L44.2977 38.5629Z" fill="url(#paint0_linear_86_11369)"/>
<path d="M9.09349 45.8334C7.92694 46.9828 6.05419 46.9843 4.88581 45.8368L3.03417 44.0182C1.83521 42.8406 1.83728 40.908 3.03877 39.733L13.5954 29.4093C14.7893 28.2417 14.8 26.3239 13.6191 25.1431L10.4478 21.9717C9.26872 20.7927 9.27735 18.8784 10.467 17.7101L12.3443 15.8662C13.5121 14.7193 15.3837 14.7201 16.5505 15.8681L25.8709 25.0382C27.0663 26.2143 27.0655 28.142 25.869 29.317L21.9053 33.21L9.09349 45.8334Z" fill="url(#paint1_linear_86_11369)"/>
<path d="M45.1836 52.2991C44.0122 53.4497 42.1334 53.4447 40.9681 52.288L30.3873 41.7856C29.2145 40.6214 27.3211 40.6249 26.1526 41.7934L22.9113 45.0347C21.7472 46.1988 19.8624 46.2073 18.6878 45.0537L16.8364 43.2354C15.6434 42.0636 15.6386 40.1427 16.8258 38.9651L26.1637 29.7025C27.3292 28.5464 29.2074 28.5418 30.3786 29.692L34.4071 33.6486L47.055 46.2028C48.2415 47.3805 48.2364 49.3009 47.0437 50.4723L45.1836 52.2991Z" fill="url(#paint2_linear_86_11369)"/>
<path d="M22.1254 20.8181L9.47416 8.35427C8.28764 7.18533 8.2805 5.27361 9.45826 4.09585L11.2469 2.30721C12.4123 1.14181 14.2996 1.13477 15.4737 2.29144L26.0356 12.6969C27.2097 13.8536 29.097 13.8465 30.2624 12.6811L33.5115 9.43198C34.6756 8.26786 36.5604 8.25937 37.735 9.41295L39.5775 11.2226C40.774 12.3977 40.7748 14.3253 39.5794 15.5015L30.2586 24.6719C29.092 25.8197 27.2207 25.8207 26.0528 24.6741L22.1254 20.8181Z" fill="url(#paint3_linear_86_11369)"/>
<defs>
<linearGradient id="paint0_linear_86_11369" x1="55.5727" y1="23.6649" x2="55.5727" y2="-10.4059" gradientUnits="userSpaceOnUse">
<stop stop-color="#40AB3D"/>
<stop offset="0.52" stop-color="#3FA93D"/>
<stop offset="0.72" stop-color="#3BA23B"/>
<stop offset="0.86" stop-color="#359639"/>
<stop offset="0.97" stop-color="#2D8535"/>
<stop offset="1" stop-color="#2A8034"/>
</linearGradient>
<linearGradient id="paint1_linear_86_11369" x1="0.894638" y1="30.8864" x2="0.894638" y2="64.954" gradientUnits="userSpaceOnUse">
<stop stop-color="#40AB3D"/>
<stop offset="0.52" stop-color="#3FA93D"/>
<stop offset="0.72" stop-color="#3BA23B"/>
<stop offset="0.86" stop-color="#359639"/>
<stop offset="0.97" stop-color="#2D8535"/>
<stop offset="1" stop-color="#2A8034"/>
</linearGradient>
<linearGradient id="paint2_linear_86_11369" x1="14.635" y1="40.9964" x2="14.635" y2="67.6542" gradientUnits="userSpaceOnUse">
<stop stop-color="#130F40"/>
<stop offset="1" stop-color="#161616"/>
</linearGradient>
<linearGradient id="paint3_linear_86_11369" x1="24.5704" y1="0.200439" x2="59.104" y2="0.200439" gradientUnits="userSpaceOnUse">
<stop stop-color="#130F40"/>
<stop offset="1" stop-color="#161616"/>
</linearGradient>
</defs>
</svg>
